# xmcd
#
# Track frame offsets:
#	150
#	20766
#	35439
#	51524
#	65594
#	87229
#	104145
#	120380
#	140488
#	160122
#	176462
#	194894
#	216289
#	235053
#
# Disc length: 3294 seconds
#
# Revision: 1
# Processed by: cddbd v1.5.2PL0 Copyright (c) Steve Scherf et al.
# Submitted via: audiograbber 1.83.01
#
DISCID=d10cdc0e
DTITLE=меожутос цеяасилос [2006] - ыдийг богхеиа [ламтфиос, амдяеатос, мецйа]
DYEAR=2006
DGENRE=
TTITLE0=тоу паяадеисоу та паидиа - ламтфиос
TTITLE1=г жукайг - циыта мецйа
TTITLE2=еяытийа стивайиа  - ламтфиос
TTITLE3=о аццекос поу йоубакы  - ламтфиос
TTITLE4=то йоубаяи  - ламтфиос
TTITLE5=то симела тоу памтекг  - ламтфиос
TTITLE6=талата  - ламтфиос
TTITLE7=отам лоу кес пыс л' ацапас  - ламтфиос
TTITLE8=ежгбеиа - цеяасилос амдяеатос
TTITLE9=ти ма еимаи г ацапг  - ламтфиос
TTITLE10=то танидайи тгс фыгс  - ламтфиос
TTITLE11=то жыс тоу жеццаяиоу  - ламтфиос
TTITLE12=стоа тым ахаматым  - ламтфиос
TTITLE13=ежгбеиа - оявгстяийо
EXTD=
EXTT0=
EXTT1=
EXTT2=
EXTT3=
EXTT4=
EXTT5=
EXTT6=
EXTT7=
EXTT8=
EXTT9=
EXTT10=
EXTT11=
EXTT12=
EXTT13=
PLAYORDER=
